# xmcd
#
# Track frame offsets:
#	150
#	16806
#	30717
#	45770
#	55296
#	66213
#	78318
#	93915
#	107545
#	125338
#	136684
#	151087
#	170598
#	184412
#
# Disc length: 2647 seconds
#
# Revision: 0
# Processed by: cddbd v1.5.2PL0 Copyright (c) Steve Scherf et al.
# Submitted via: dBpowerAMP V4.0
#
DISCID=a40a550e
DTITLE=Don Williams  - The Gentle Giant (Time Life)
DYEAR=2006
DGENRE=Country
TTITLE0=Fever
TTITLE1=Crying In The Rain
TTITLE2=Lay Down Sally
TTITLE3=My Rifle, My Pony And Me
TTITLE4=Reason To Believe
TTITLE5=I'll Be There (If You Ever Want Me)
TTITLE6=Games People Play
TTITLE7=Peace Train
TTITLE8=If You Could Read My Mind
TTITLE9=Fly Away
TTITLE10=The Long Black Veil
TTITLE11=You've Got A Friend
TTITLE12=Pretend
TTITLE13=Lay Down Beside Me
EXTD=
EXTT0=
EXTT1=
EXTT2=
EXTT3=
EXTT4=
EXTT5=
EXTT6=
EXTT7=
EXTT8=
EXTT9=
EXTT10=
EXTT11=
EXTT12=
EXTT13=
PLAYORDER=
